<?xml version="1.0" standalone="yes"?>
<svg xmlns="http://www.w3.org/2000/svg" width="551" height="327">
<path style="fill:#FFFFFF; stroke:none;" d="M0 0L0 327L551 327L551 0L0 0z"/>
<path style="fill:#122c5f; stroke:none;" d="M326 18L326 114C326 129.561 328.609 147.841 325 163C314.389 155.738 303.984 148.564 291 146.17C246.718 138.004 199.396 168.219 199 216C191.129 212.329 185.158 204.021 179 198.015C170.727 189.945 162.184 182.188 154 174C143.704 163.7 134.587 153.725 121 147.666C107.11 141.471 90.9041 139.16 76 142.339C63.0055 145.11 49.9611 149.949 40 159.093C30.4011 167.905 23.2456 177.816 18.5795 190C15.3479 198.438 14 207.008 14 216C14 227.959 15.8138 239.064 20.9591 250C38.9254 288.187 85.4308 303.033 123 285.625C131.855 281.522 140.255 275.472 146.561 268C154.433 258.672 160.483 247.926 163.403 236C164.607 231.081 164.782 225.945 166 221L168 221C171.052 226.717 177.173 231.104 181.83 235.576C189.291 242.738 196.321 250.221 204 257.17C213.614 265.87 221.03 276.747 232 283.921C257.235 300.422 291.826 300.514 317 283.794C325.381 278.228 331.466 270.904 338.51 263.884C346.901 255.522 355.469 247.362 363.961 239.09C369.759 233.44 376.029 224.238 384 222C383.056 238.199 384 254.749 384 271C384 278.9 384.839 287.276 383 295C390.721 297.282 399.975 296 408 296L408 225L408 206C408 202.763 407.526 199.004 409.024 196.015C411.121 191.83 415.945 188.326 419.174 184.975C427.709 176.116 438.721 168.675 451 166.465C471.606 162.756 493.257 174.261 503.652 192C511.611 205.582 511 220.813 511 236L511 296L511 296L535 296L535 236C535 222.261 535.924 208.341 531.964 195C518.314 149.024 465.766 129.484 424 149.948C413.392 155.146 405.238 163.762 397 172C389.856 179.144 382.104 185.763 375.093 193C367.524 200.815 359.905 209.727 351 216C349.772 200.438 351 184.697 351 169L351 73L351 35C351 30.935 352.331 23.8524 349.972 20.3179C348.424 17.9979 345.484 18.0514 343 18.0046C337.338 17.8981 331.664 18 326 18z"/>
<path style="fill:#FFFFFF; stroke:none;" d="M82 166.514C71.1244 168.705 60.9097 173.268 53.0949 181.325C33.7163 201.304 34.4488 234.422 54.0903 253.907C60.6239 260.388 69.2051 264.412 78 266.727C84.4679 268.43 92.4046 268.837 99 267.485C127.792 261.583 145.936 232.609 139.471 204C134.053 180.021 106.275 161.624 82 166.514M269 169.553C239.081 172.766 216.963 203.633 224.478 233C228.869 250.155 242.449 263.436 259 268.996C266.357 271.467 275.289 271.875 283 270.791C289.84 269.83 297.392 266.805 303 262.83C315.043 254.295 323.882 241.956 325.62 227C329.32 195.152 300.987 166.118 269 169.553z"/>
</svg>
